
        <svg xmlns="http://www.w3.org/2000/svg" xmlns:xlink="http://www.w3.org/1999/xlink" version="1.1" width="3162.2002820874472" height="545.1922671698443" viewBox="0 0 3162.2002820874472 545.1922671698443">
			
			<g transform="scale(8.110014104372356) translate(10, 10)">
				<defs id="SvgjsDefs1118"/><g id="SvgjsG1119" featureKey="5TMTKC-0" transform="matrix(3.342082265533598,0,0,3.342082265533598,0,15.999840637099002)" fill="#000"><defs xmlns="http://www.w3.org/2000/svg"/><g xmlns="http://www.w3.org/2000/svg"><path d="M-0 1.59777c1.78679,0.0661596 2.02227,1.00406 4.40631,0.053922 1.95075,-0.777376 3.4272,-0.793342 5.33331,0.187197 -2.10525,-0.339498 -2.78435,-0.463404 -4.88033,0.300204 -1.69309,0.616853 -3.28485,0.565034 -4.85929,-0.541324zm13.2924 2.86284c1.38409,-0.671061 1.82178,-0.211386 3.72683,-1.37884 0.945261,-0.579375 1.3971,-0.869636 2.43032,-1.26134l-0.103829 0.0496197c1.30923,-0.464265 2.10372,-0.488071 3.42061,-0.0311677 -0.313015,0.0239972 -1.28275,0.0926426 -1.66891,0.149624 -2.82125,0.416366 -4.52085,3.06954 -7.80502,2.4721zm-10.8997 0.211003c1.67283,-1.5711 4.29827,-2.82938 6.43861,-2.27237 2.20497,0.57383 4.62917,1.04842 6.8459,0.428986 0.387302,-0.108226 1.24422,-0.414836 1.65122,-0.3264 -0.426883,0.372961 -1.0292,0.651845 -1.51574,0.878527 -2.11816,0.987136 -5.08502,0.894685 -7.25548,0.117787 -1.96194,-0.702229 -4.33623,0.57861 -6.16451,1.17347zm9.69134 -4.36969c2.33968,-0.394185 3.26372,0.625075 5.06054,0.305845l0.256416 -0.0044935c-1.27271,1.21927 -3.88697,0.0837512 -5.31696,-0.301351zm-8.55553 0.78359c1.62426,-1.20607 3.11648,-1.13112 4.96647,-1.03972l-0.0737126 -0.0175916c1.91337,0.116735 3.65025,1.81528 6.43565,1.66891 1.65982,-0.0872887 3.61909,-1.05702 5.29927,-1.21439 -0.77403,0.643814 -2.53032,1.30484 -3.41869,1.62034 -5.2248,1.85591 -5.54135,-1.00932 -9.67308,-1.36 -1.88985,-0.160332 -2.01519,0.296954 -3.53591,0.342462z" style="fill: #f0d687;"/></g></g><g id="SvgjsG1120" featureKey="7UBp9i-0" transform="matrix(2.63529976092135,0,0,2.63529976092135,94.78776200944748,-15.07391282295338)" fill="#000"><path d="M12.3 5.720000000000001 l0 2.48 l-7.66 9.16 l7.86 0 l0 2.64 l-12.04 0 l0 -2.48 l7.66 -9.16 l-7.06 0 l0 -2.64 l11.24 0 z M18.82 9.38 c0.97334 0 1.84 0.22664 2.6 0.67998 s1.3567 1.11 1.79 1.97 s0.65 1.85 0.65 2.97 c0 0.10666 -0.0066602 0.28 -0.02 0.52 l-7.46 0 c0.02666 0.82666 0.24332 1.47 0.64998 1.93 s1.03 0.69 1.87 0.69 c0.52 0 0.99666 -0.13 1.43 -0.39 s0.71 -0.57666 0.83 -0.95 l2.5 0 c-0.73334 2.32 -2.3466 3.48 -4.84 3.48 c-0.94666 -0.01334 -1.8233 -0.22 -2.63 -0.62 s-1.45 -1.0233 -1.93 -1.87 s-0.72 -1.83 -0.72 -2.95 c0 -1.0533 0.24334 -2.0134 0.73 -2.88 s1.1333 -1.5133 1.94 -1.94 s1.6767 -0.64 2.61 -0.64 z M21 13.719999999999999 c-0.13334 -0.77334 -0.38 -1.3333 -0.74 -1.68 s-0.87334 -0.52 -1.54 -0.52 c-0.69334 0 -1.24 0.19666 -1.64 0.59 s-0.63334 0.93 -0.7 1.61 l4.62 0 z M31.340000000000003 9.38 c1.4267 0 2.5666 0.5 3.42 1.5 s1.28 2.3534 1.28 4.06 c0 1.56 -0.41 2.84 -1.23 3.84 s-1.9233 1.5 -3.31 1.5 c-1.36 0 -2.3934 -0.52 -3.1 -1.56 l-0.04 0 l0 4.92 l-2.84 0 l0 -13.98 l2.7 0 l0 1.32 l0.04 0 c0.68 -1.0667 1.7067 -1.6 3.08 -1.6 z M28.26 14.86 c0 1.0133 0.21336 1.8133 0.64002 2.4 s1.04 0.88 1.84 0.88 c0.82666 0 1.4433 -0.29334 1.85 -0.88 s0.61 -1.3867 0.61 -2.4 c0 -1.04 -0.22 -1.8567 -0.66 -2.45 s-1.0533 -0.89 -1.84 -0.89 s-1.39 0.29334 -1.81 0.88 s-0.63 1.4067 -0.63 2.46 z M40.580000000000005 5.720000000000001 l0 5.38 l0.06 0 c0.32 -0.53334 0.75334 -0.95334 1.3 -1.26 s1.1267 -0.46 1.74 -0.46 c1.32 0 2.2766 0.33334 2.87 1 s0.89 1.72 0.89 3.16 l0 6.46 l-2.84 0 l0 -5.88 c0 -0.84 -0.13666 -1.4667 -0.41 -1.88 s-0.74334 -0.62 -1.41 -0.62 c-0.76 0 -1.3167 0.23 -1.67 0.69 s-0.53 1.2167 -0.53 2.27 l0 5.42 l-2.84 0 l0 -14.28 l2.84 0 z M51.440000000000005 9.66 l2.34 7.08 l0.04 0 l2.26 -7.08 l2.94 0 l-4.32 11.64 c-0.30666 0.81334 -0.73 1.4067 -1.27 1.78 s-1.29 0.56 -2.25 0.56 c-0.41334 0 -1.0067 -0.03334 -1.78 -0.1 l0 -2.34 c0.50666 0.06666 1.0067 0.1 1.5 0.1 c0.4 0 0.71 -0.12334 0.93 -0.37 s0.33 -0.55666 0.33 -0.93 c0 -0.21334 -0.04 -0.42668 -0.12 -0.64002 l-3.64 -9.7 l3.04 0 z M66.02000000000001 9.38 c0.24 0 0.44668 0.03334 0.62002 0.1 l0 2.64 c-0.30666 -0.06666 -0.64666 -0.1 -1.02 -0.1 c-1.8667 0 -2.8 1.1067 -2.8 3.32 l0 4.66 l-2.84 0 l0 -10.34 l2.7 0 l0 1.92 l0.04 0 c0.28 -0.66666 0.72334 -1.2 1.33 -1.6 s1.2633 -0.6 1.97 -0.6 z M78.04 5.720000000000001 l3.34 9.82 l0.04 0 l3.16 -9.82 l4.42 0 l0 14.28 l-2.94 0 l0 -10.12 l-0.04 0 l-3.5 10.12 l-2.42 0 l-3.5 -10.02 l-0.04 0 l0 10.02 l-2.94 0 l0 -14.28 l4.42 0 z M97.88000000000001 5.720000000000001 c2.0266 0 3.62 0.62666 4.78 1.88 s1.74 2.98 1.74 5.18 c0 2.28 -0.58334 4.0534 -1.75 5.32 s-2.73 1.9 -4.69 1.9 l-6.2 0 l0 -14.28 l6.12 0 z M97.68 17.36 c1.1333 0 2.0134 -0.37334 2.64 -1.12 s0.94 -1.8067 0.94 -3.18 c0 -1.5733 -0.33666 -2.75 -1.01 -3.53 s-1.71 -1.17 -3.11 -1.17 l-2.24 0 l0 9 l2.78 0 z"/></g>
			</g>
		</svg>
	